<svg width="18" height="18" viewBox="0 0 16 16" version="1.1" xmlns="http://www.w3.org/2000/svg" xmlns:xlink="http://www.w3.org/1999/xlink">
<g id="Canvas" fill="none">
<g id="ic_add_circle_outline_black_18px">
<g id="Vector">
<path d="M 8.25 3.75L 6.75 3.75L 6.75 6.75L 3.75 6.75L 3.75 8.25L 6.75 8.25L 6.75 11.25L 8.25 11.25L 8.25 8.25L 11.25 8.25L 11.25 6.75L 8.25 6.75L 8.25 3.75ZM 7.5 0C 3.36 0 0 3.36 0 7.5C 0 11.64 3.36 15 7.5 15C 11.64 15 15 11.64 15 7.5C 15 3.36 11.64 0 7.5 0ZM 7.5 13.5C 4.1925 13.5 1.5 10.8075 1.5 7.5C 1.5 4.1925 4.1925 1.5 7.5 1.5C 10.8075 1.5 13.5 4.1925 13.5 7.5C 13.5 10.8075 10.8075 13.5 7.5 13.5Z" transform="matrix(0.707107 0.707107 -0.707107 0.707107 8 -2.60657)" fill="#B7B7B7"/>
</g>
</g>
</g>
</svg>

