<svg width="141" height="61" viewBox="0 0 141 61" version="1.1" xmlns="http://www.w3.org/2000/svg" xmlns:xlink="http://www.w3.org/1999/xlink">
<title>logo</title>
<desc>Created using Figma</desc>
<g id="Canvas" transform="translate(990 -6286)">
<g id="logo">
<g id="&#208;&#186;&#208;&#176;&#208;&#191;&#208;&#187;&#209;&#143; 1">
<use xlink:href="#path0_fill" transform="translate(-968.075 6308.08)" fill="#3F87F5"/>
</g>
<g id="&#208;&#186;&#208;&#176;&#208;&#191;&#208;&#187;&#209;&#143; 2">
<use xlink:href="#path1_fill" transform="translate(-960.515 6294.23)" fill="#3F87F5"/>
</g>
<g id="&#208;&#186;&#208;&#176;&#208;&#191;&#208;&#187;&#209;&#143; 3">
<use xlink:href="#path2_fill" transform="translate(-941.962 6286)" fill="#3F87F5"/>
</g>
<g id="&#209;&#130;&#209;&#131;&#209;&#135;&#208;&#186;&#208;&#176;">
<use xlink:href="#path3_fill" transform="translate(-928.263 6293.81)" fill="#3F87F5"/>
</g>
<g id="mind">
<use xlink:href="#path4_fill" transform="translate(-990 6309.51)" fill="#ED6868"/>
<use xlink:href="#path5_fill" transform="translate(-990 6309.51)" fill="#ED6868"/>
<use xlink:href="#path6_fill" transform="translate(-990 6309.51)" fill="#ED6868"/>
<use xlink:href="#path7_fill" transform="translate(-990 6309.51)" fill="#ED6868"/>
</g>
<g id="cloud">
<use xlink:href="#path8_fill" transform="translate(-922.812 6309.48)" fill="#FFFFFF"/>
<use xlink:href="#path9_fill" transform="translate(-922.812 6309.48)" fill="#FFFFFF"/>
<use xlink:href="#path10_fill" transform="translate(-922.812 6309.48)" fill="#FFFFFF"/>
<use xlink:href="#path11_fill" transform="translate(-922.812 6309.48)" fill="#FFFFFF"/>
<use xlink:href="#path12_fill" transform="translate(-922.812 6309.48)" fill="#FFFFFF"/>
</g>
</g>
</g>
<defs>
<path id="path0_fill" d="M 5.38204 2.684C 5.38204 4.16633 4.17723 5.368 2.69102 5.368C 1.20481 5.368 0 4.16633 0 2.684C 0 1.20167 1.20481 0 2.69102 0C 4.17723 0 5.38204 1.20167 5.38204 2.684Z"/>
<path id="path1_fill" d="M 10.7641 5.368C 10.7641 8.33267 8.35445 10.736 5.38204 10.736C 2.40962 10.736 0 8.33267 0 5.368C 0 2.40334 2.40962 0 5.38204 0C 8.35445 0 10.7641 2.40334 10.7641 5.368Z"/>
<path id="path2_fill" d="M 16.1461 8.052C 16.1461 12.499 12.5317 16.104 8.07305 16.104C 3.61443 16.104 0 12.499 0 8.052C 0 3.605 3.61443 0 8.07305 0C 12.5317 0 16.1461 3.605 16.1461 8.052Z"/>
<path id="path3_fill" fill-rule="evenodd" d="M 7.17756 36.8461C 6.36519 37.7524 5.87131 38.9487 5.87131 40.26C 5.87131 43.0899 8.1714 45.384 11.0087 45.384C 11.6092 45.384 12.1857 45.2812 12.7213 45.0924L 12.7212 45.14C 12.7212 49.587 16.3356 53.192 20.7942 53.192C 24.7743 53.192 28.0816 50.3194 28.7458 46.5396C 30.1924 49.6056 33.3179 51.728 36.9403 51.728C 40.9947 51.728 44.4264 49.0694 45.5787 45.4047C 47.9553 49.2018 52.1822 51.728 57.0007 51.728C 62.3805 51.728 67.0229 48.5788 69.1759 44.0279C 70.0913 44.8698 71.3142 45.384 72.6575 45.384C 75.4948 45.384 77.7949 43.0899 77.7949 40.26C 77.7949 38.0125 76.344 36.1029 74.3255 35.4121C 77.1659 34.675 79.2627 32.0997 79.2627 29.036C 79.2627 25.3975 76.3055 22.448 72.6575 22.448C 72.3903 22.448 72.1268 22.4638 71.8679 22.4946C 72.5284 21.2413 72.9021 19.8142 72.9021 18.3C 72.9021 13.314 68.8496 9.272 63.8505 9.272C 61.848 9.272 59.9974 9.92057 58.4983 11.0186C 57.3634 4.75282 51.8672 0 45.258 0C 41.2497 0 37.6507 1.74818 35.1857 4.5218C 33.5639 2.09034 30.7916 0.488 27.6441 0.488C 22.645 0.488 18.5925 4.52997 18.5925 9.516C 18.5925 9.59964 18.5936 9.68301 18.5959 9.7661C 17.281 8.84003 15.6764 8.296 13.9444 8.296C 9.48574 8.296 5.87131 11.901 5.87131 16.348C 5.87131 17.287 6.03248 18.1885 6.32872 19.0264C 2.6497 20.2616 0 23.7302 0 27.816C 0 32.2098 3.06423 35.8898 7.17756 36.8461Z"/>
<path id="path4_fill" d="M 8.78495 20.3335C 8.78495 21.1402 9.25906 21.6408 10.0121 21.6408C 10.765 21.6408 11.2392 21.1402 11.2392 20.3335L 11.2392 12.0443C 11.2392 9.93031 12.4105 8.62296 14.3906 8.62296C 16.3986 8.62296 17.5699 9.93031 17.5699 12.0443L 17.5699 20.3335C 17.5699 21.1402 18.044 21.6408 18.797 21.6408C 19.55 21.6408 20.0241 21.1402 20.0241 20.3335L 20.0241 12.1278C 20.0241 7.95538 17.1516 6.50894 14.8647 6.50894C 12.7173 6.50894 11.4065 7.45469 10.3188 9.01238C 9.20328 7.1209 7.69729 6.50894 6.24708 6.50894C 4.01598 6.50894 3.09565 7.56595 2.50999 8.31699L 2.45421 8.26135L 2.45421 7.8163C 2.45421 7.00963 1.9801 6.50894 1.2271 6.50894C 0.474109 6.50894 0 7.00963 0 7.8163L 0 20.3335C 0 21.1402 0.474109 21.6408 1.2271 21.6408C 1.9801 21.6408 2.45421 21.1402 2.45421 20.3335L 2.45421 12.0443C 2.45421 9.93031 3.62554 8.62296 5.60564 8.62296C 7.61362 8.62296 8.78495 9.93031 8.78495 12.0443L 8.78495 20.3335Z"/>
<path id="path5_fill" d="M 25.713 7.8163C 25.713 7.00963 25.2389 6.50894 24.4859 6.50894C 23.7329 6.50894 23.2588 7.00963 23.2588 7.8163L 23.2588 20.3335C 23.2588 21.1402 23.7329 21.6408 24.4859 21.6408C 25.2389 21.6408 25.713 21.1402 25.713 20.3335L 25.713 7.8163Z"/>
<path id="path6_fill" d="M 28.9509 20.3335C 28.9509 21.1402 29.425 21.6408 30.178 21.6408C 30.931 21.6408 31.4051 21.1402 31.4051 20.3335L 31.4051 12.2669C 31.4051 9.67997 33.2179 8.62296 34.8354 8.62296C 36.453 8.62296 38.2657 9.67997 38.2657 12.2669L 38.2657 20.3335C 38.2657 21.1402 38.7398 21.6408 39.4928 21.6408C 40.2458 21.6408 40.7199 21.1402 40.7199 20.3335L 40.7199 12.1278C 40.7199 7.95538 37.8474 6.50894 35.5605 6.50894C 34.0824 6.50894 32.5485 7.06526 31.4609 8.45606L 31.4051 8.40043L 31.4051 7.8163C 31.4051 7.00963 30.931 6.50894 30.178 6.50894C 29.425 6.50894 28.9509 7.00963 28.9509 7.8163L 28.9509 20.3335Z"/>
<path id="path7_fill" d="M 53.9137 14.0749C 53.9137 16.5783 52.8539 19.5268 49.842 19.5268C 46.83 19.5268 45.7702 16.5783 45.7702 14.0749C 45.7702 11.5715 46.83 8.62296 49.842 8.62296C 52.8539 8.62296 53.9137 11.5715 53.9137 14.0749ZM 53.6627 20.3335C 53.6627 21.1402 54.1368 21.6408 54.8898 21.6408C 55.6428 21.6408 56.1169 21.1402 56.1169 20.3335L 56.1169 1.30735C 56.1169 0.500688 55.6428 0 54.8898 0C 54.1368 0 53.6627 0.500688 53.6627 1.30735L 53.6627 8.5117L 53.6069 8.5117C 52.9655 7.59377 51.5989 6.50894 49.6467 6.50894C 45.6308 6.50894 43.316 10.1528 43.316 14.0749C 43.316 17.997 45.6308 21.6408 49.6467 21.6408C 51.5989 21.6408 52.9097 20.9454 53.6069 19.6103L 53.6627 19.6103L 53.6627 20.3335Z"/>
<path id="path8_fill" d="M 12.1037 8.81767C 12.1037 6.87055 8.78495 6.28641 7.19529 6.28641C 2.95621 6.28641 0 9.98594 0 14.0471C 0 18.2195 2.87254 21.7521 7.19529 21.7521C 8.64551 21.7521 12.1037 21.0567 12.1037 18.9983C 12.1037 18.0526 11.3228 17.2459 10.3746 17.2459C 9.9005 17.2459 8.39451 18.0804 7.39051 18.0804C 5.21519 18.0804 4.01598 16.022 4.01598 14.0471C 4.01598 11.9887 5.10364 9.95813 7.39051 9.95813C 8.6734 9.95813 9.56584 10.737 10.5698 10.737C 11.518 10.737 12.1037 9.65215 12.1037 8.81767Z"/>
<path id="path9_fill" d="M 13.4393 19.3599C 13.4393 20.6951 14.276 21.5852 15.4473 21.5852C 16.6186 21.5852 17.4553 20.6951 17.4553 19.3599L 17.4553 2.22528C 17.4553 0.890112 16.6186 0 15.4473 0C 14.276 0 13.4393 0.890112 13.4393 2.22528L 13.4393 19.3599Z"/>
<path id="path10_fill" d="M 26.2871 6.28641C 22.048 6.28641 19.0918 9.98594 19.0918 14.0471C 19.0918 18.2195 21.9643 21.7521 26.2871 21.7521C 30.6098 21.7521 33.4824 18.2195 33.4824 14.0471C 33.4824 9.98594 30.5262 6.28641 26.2871 6.28641ZM 26.2871 9.95813C 28.4903 9.95813 29.4664 12.1278 29.4664 14.0471C 29.4664 15.9664 28.4624 18.0804 26.2871 18.0804C 24.1118 18.0804 23.1078 15.9664 23.1078 14.0471C 23.1078 12.1278 24.0839 9.95813 26.2871 9.95813Z"/>
<path id="path11_fill" d="M 35.1742 15.9108C 35.1742 19.4712 37.5448 21.7521 41.7839 21.7521C 46.0229 21.7521 48.3935 19.4712 48.3935 15.9108L 48.3935 8.67859C 48.3935 7.34342 47.5568 6.45331 46.3855 6.45331C 45.2142 6.45331 44.3775 7.34342 44.3775 8.67859L 44.3775 15.8273C 44.3775 17.4963 43.1225 18.4142 41.7839 18.4142C 40.4452 18.4142 39.1902 17.4963 39.1902 15.8273L 39.1902 8.67859C 39.1902 7.34342 38.3535 6.45331 37.1822 6.45331C 36.0109 6.45331 35.1742 7.34342 35.1742 8.67859L 35.1742 15.9108Z"/>
<path id="path12_fill" d="M 64.3923 2.22528C 64.3923 0.890112 63.5556 0 62.3843 0C 61.2129 0 60.3763 0.890112 60.3763 2.22528L 60.3763 7.67722C 59.3165 6.75929 57.95 6.28641 56.5555 6.28641C 52.2328 6.28641 50.0853 10.3197 50.0853 14.214C 50.0853 17.997 52.6511 21.7521 56.695 21.7521C 58.0615 21.7521 59.6233 21.1402 60.3763 19.9163C 60.6273 20.9733 61.2687 21.5852 62.3843 21.5852C 63.5556 21.5852 64.3923 20.6951 64.3923 19.3599L 64.3923 2.22528ZM 60.3763 13.908C 60.3763 15.8551 59.4281 18.0804 57.2248 18.0804C 55.1332 18.0804 54.1013 15.9108 54.1013 14.0471C 54.1013 12.1556 55.1332 9.95813 57.2248 9.95813C 59.3723 9.95813 60.3763 11.9609 60.3763 13.908Z"/>
</defs>
</svg>
